<?xml version="1.0" encoding="UTF-8"?>
<svg width="528px" height="112px" viewBox="0 0 528 112" version="1.1" xmlns="http://www.w3.org/2000/svg" xmlns:xlink="http://www.w3.org/1999/xlink">
    <!-- Generator: Sketch 51.2 (57519) - http://www.bohemiancoding.com/sketch -->
    <title>dotsafe_new_white</title>
    <desc>Created with Sketch.</desc>
    <defs></defs>
    <g id="Page-1" stroke="none" stroke-width="1" fill="none" fill-rule="evenodd">
        <g id="dotsafe_new_white" fill="#FFFFFF" fill-rule="nonzero">
            <path d="M113,35.7555072 L113,0 L126,0 L126,112 L113,112 L113,106.900859 C107.089289,110.575988 99.8370979,112 92,112 C72.117749,112 56,102.877441 56,71 C56,39.1225586 72.117749,31 92,31 C99.8370979,31 107.089289,32.268638 113,35.7555072 Z M113,59.5193928 C112.762045,43.9597974 100.936393,42 91.5,42 C77.4752742,42 68,50 68,71 C68,92 77.4752742,101 91.5,101 C100.961973,101 112.790059,98 112.912263,82 C112.917758,81.2805182 112.948579,80.6583861 113,80.1163757 L113,59.5193928 Z M171,112 C151.117749,112 135,102.877441 135,71 C135,39.1225586 151.117749,31 171,31 C190.882251,31 207,39.1650391 207,71 C207,102.834961 190.882251,112 171,112 Z M170.5,101 C184.524726,101 195,92 195,71 C195,50 184.524726,42 170.5,42 C156.475274,42 147,50 147,71 C147,92 156.475274,101 170.5,101 Z M230.445312,0 L230.445312,31 L258,31 L258,42 L230.445312,42 L230.445312,86.0546875 C230.445312,92.4765946 231.32421,96.6015534 233.082031,98.4296875 C234.839853,100.257822 238.414036,101 243.804688,101 L258,101 L258,112 L243.804687,112 C233.820263,112 226.929706,110.136737 223.132812,106.410156 C219.335919,102.683575 217.4375,95.8984867 217.4375,86.0546875 L217.4375,42 L208,42 L208,31 L217.4375,31 L217.4375,0 L230.445312,0 Z M322,42 C309.963556,42 302.539077,42 299.726562,42 C293.304655,42 288.488297,42.8124902 285.277344,44.78125 C282.06639,46.7500098 280.460938,49.7031053 280.460938,53.640625 C280.460938,56.64064 281.609364,58.9960852 283.90625,60.7070312 C286.203136,62.4179773 290.820278,64.0468673 297.757812,65.59375 L302.1875,66.578125 C311.375046,68.5468848 317.902324,71.3242008 321.769531,74.9101562 C325.636738,78.4961117 328,83.4999679 328,89.921875 C328,97.2344116 324.67581,103.023416 318.886719,107.289062 C313.097627,111.554709 305.281301,112 295.15625,112 C292.343736,112 283.291653,112 268,112 L268,101 C283.166652,101 292.26561,101 295.296875,101 C301.390655,101 306.278304,101.059581 309.55957,98.9736328 C312.840837,96.8876849 314.721029,94.703144 314.721029,90.90625 C314.721029,87.3906074 313.097668,84.6953219 310.730469,82.8203125 C308.363269,80.9453031 303.171915,79.1406337 295.15625,77.40625 L290.65625,76.3515625 C282.640585,74.6640541 276.85158,72.0742362 273.289062,68.5820312 C269.726545,65.0898263 268,60.2969055 268,54.203125 C268,46.796838 270.570286,41.0781452 275.820312,37.046875 C281.070339,33.0156048 288.523389,31 298.179688,31 C301.367203,31 309.307308,31 322,31 L322,42 Z M377.203613,73 C366.750436,73 357.504903,73.2766808 353.473633,75.6673177 C349.442363,78.0579547 346.945312,82.6947954 346.945312,88.4604492 C346.945312,93.0542222 348.087224,95.9199084 351.110677,98.6152344 C354.13413,101.31056 360.991699,101.431641 367.942505,100.52417 C374.893311,99.6166992 379.384277,97.1708984 382.903809,94.9443359 C386.42334,92.7177734 393,86.3503026 393,77.9127604 L393,73 L377.203613,73 Z M405,66.71875 L405,112 L392,112 L392,101.568359 C392,101.568359 387.585937,104.674805 380.430664,107.757324 C373.275391,110.839844 367.664094,112 361.289062,112 C353.226522,112 346.539575,110.464378 341.781738,105.940918 C337.023902,101.417458 334.945312,96.3203505 334.945312,88.7265625 C334.945312,79.8671432 337.910127,73.1875225 343.839844,68.6875 C349.769561,64.1874775 358.617129,62 370.382812,62 L392,62 L392,60.671875 C392,54.7187202 390.008483,50.1132975 386.094401,46.8554688 C382.180319,43.59764 373.242223,42 366.164062,42 C361.66404,42 350.059326,41.9980469 341,42 L341,31 C353.531494,31 363.281229,31 367.5,31 C378.890682,31 390.840467,33.9530955 396.465495,39.859375 C402.090523,45.7656545 405,54.71869 405,66.71875 Z M463,0 L463,10.8299154 L450.685221,10.8299154 C446.044573,10.8299154 442.821949,11.767406 441.017253,13.6424154 C439.212556,15.5174247 438.310221,18.892391 438.310221,23.7674154 L438.328125,30.9968262 L457,30.9968262 L457,42 L438.328125,42 L438.328125,112 L425.320313,112 L425.320312,42 L413,42 L413,30.9968262 L425.320312,30.9968262 L425.302409,25.2439779 C425.302409,16.478309 427.341451,10.0916542 431.419596,6.08382161 C435.497742,2.07598908 441.966427,0 450.825846,0 L463,0 Z M528.00293,67.390625 L528.00293,73.71875 L469,73.71875 C469.562503,82.6250445 470.739066,86.7222162 475.167969,91.8354492 C480.786621,98.3222656 488.815387,101 497.393555,101 C502.36233,101 501.069824,101 522,101 L522,112 C499.503174,112 501.635767,112 496.620117,112 C484.057554,112 474.108435,108.382849 466.772461,101.070312 C459.436487,93.7577759 456,83.8672498 456,71.3984375 C456,58.507748 459.248989,48.2773816 466.209961,40.7070312 C473.170933,33.1366809 482.557558,31 494.370117,31 C504.96392,31 513.342743,32.7616846 519.506836,39.5820312 C525.670929,46.4023779 528.00293,55.6718164 528.00293,67.390625 Z M517,62 C517,56.1269531 515.463477,52.5392578 511.337402,48.0380859 C507.211328,43.5369141 500.885774,42 494.510742,42 C487.291956,42 479.75,42.7993164 475.298828,47.2421875 C471.8152,50.7193189 469,55.3173828 469,62 L517,62 Z" id="dot-safe"></path>
            <polygon id="Combined-Shape" points="0.76980165 112 52.3253572 0 68 0 16.4444444 112"></polygon>
        </g>
    </g>
</svg>